# AST/ASF file generated using VICON BodyLanguage
# -----------------------------------------------
:version 1.10
:name VICON
:units
  mass 1.0
  length 0.45
  angle deg
:documentation
   .ast/.asf automatically generated from VICON data using
   VICON BodyBuilder and BodyLanguage model FoxedUp or BRILLIANT.MOD
:root
   order TX TY TZ RX RY RZ
   axis XYZ
   position 0 0 0  
   orientation 0 0 0 
:bonedata
  begin
     id 1 
     name lhipjoint
     direction 0.635376 -0.686425 0.353719 
     length 2.47244 
     axis 0 0 0  XYZ
  end
  begin
     id 2 
     name lfemur
     direction 0.34202 -0.939693 0  
     length 7.25268  
     axis 0 0 20  XYZ
    dof rx ry rz
    limits (-160.0 20.0)
           (-70.0 70.0)
           (-60.0 70.0)
  end
  begin
     id 3 
     name ltibia
     direction 0.34202 -0.939693 0   
     length 7.6767   
     axis 0 0 20   XYZ
    dof rx
    limits (-10.0 170.0)
  end
  begin
     id 4 
     name lfoot
     direction 0.0803374 -0.220725 0.972022   
     length 2.22945   
     axis -90 7.62852e-016 20   XYZ
    dof rx rz
    limits (-45.0 90.0)
           (-70.0 20.0)
  end
  begin
     id 5 
     name ltoes
     direction 1.53579e-011 -4.21994e-011 1   
     length 1.11848   
     axis -90 7.62852e-016 20   XYZ
    dof rx
    limits (-90.0 20.0)
  end
  begin
     id 6 
     name rhipjoint
     direction -0.664428 -0.664335 0.342336   
     length 2.55466  
     axis 0 0 0  XYZ 
  end
  begin
     id 7 
     name rfemur
     direction -0.34202 -0.939693 0   
     length 6.83172   
     axis 0 0 -20   XYZ
    dof rx ry rz
    limits (-160.0 20.0)
           (-70.0 70.0)
           (-70.0 60.0)
  end
  begin
     id 8 
     name rtibia
     direction -0.34202 -0.939693 0   
     length 7.62692   
     axis 0 0 -20   XYZ
    dof rx
    limits (-10.0 170.0)
 end
 begin
     id 9 
     name rfoot
     direction -0.0949276 -0.260811 0.960711   
     length 2.19684  
     axis -90 -7.62852e-016 -20   XYZ
    dof rx rz
    limits (-45.0 90.0)
           (-20.0 70.0)
  end
  begin
     id 10 
     name rtoes
     direction -1.53543e-011 -4.2183e-011 1   
     length 1.09848   
     axis -90 -7.62852e-016 -20   XYZ
    dof rx
    limits (-90.0 20.0)
  end
  begin
     id 11 
     name lowerback
     direction 0.0118782 0.999815 -0.0151555   
     length 2.15772   
     axis 0 0 0   XYZ
    dof rx ry rz
    limits (-20.0 45.0)
           (-30.0 30.0)
           (-30.0 30.0)
  end
  begin
     id 12 
     name upperback
     direction 0.00130825 0.999065 0.0432113   
     length 2.14863   
     axis 0 0 0   XYZ
    dof rx ry rz
    limits (-20.0 45.0)
           (-30.0 30.0)
           (-30.0 30.0)
  end
  begin
     id 13 
     name thorax
     direction -0.00347005 0.998773 0.0494011   
     length 2.14936   
     axis 0 0 0   XYZ
    dof rx ry rz
    limits (-20.0 45.0)
           (-30.0 30.0)
           (-30.0 30.0)
  end
  begin
     id 14 
     name lowerneck
     direction -0.0262159 0.99424 0.103921   
     length 1.69373   
     axis 0 0 0   XYZ
    dof rx ry rz
    limits (-20.0 45.0)
           (-30.0 30.0)
           (-30.0 30.0)
  end
  begin
     id 15 
     name upperneck
     direction 0.0353511 0.977394 -0.20845   
     length 1.70857   
     axis 0 0 0   XYZ
    dof rx ry rz
    limits (-20.0 45.0)
           (-30.0 30.0)
           (-30.0 30.0)
  end
  begin
     id 16
     name head
     direction 0.0139214 0.996594 -0.0812836  
     length 1.72777  
     axis 0 0 0   XYZ
    dof rx ry rz
    limits (-20.0 45.0)
           (-30.0 30.0)
           (-30.0 30.0)
  end
  begin
     id 17 
     name lclavicle
     direction 0.841247 0.537205 -0.0609508  
     length 3.55371  
     axis 0 0 0   XYZ
    dof ry rz
    limits (-20.0 10.0)
           (0.0 20.0)
  end
  begin
     id 18 
     name lhumerus
     direction 1 -4.48964e-011 1.60116e-018   
     length 4.91377   
     axis -180 -30 -90   XYZ
    dof rx ry rz
    limits (-60.0 90.0)
           (-90.0 90.0)
           (-90.0 90.0)
  end
  begin
     id 19
     name lradius
     direction 1 -4.48989e-011 -8.93847e-027   
     length 3.00291   
     axis -180 -30 -90   XYZ
    dof rx
    limits (-10.0 170.0)
  end
  begin
     id 20
     name lwrist
     direction 1 -4.48932e-011 -7.31504e-027   
     length 1.50145   
     axis 5.74121e-015 90 90   XYZ
    dof ry
    limits (-180.0 0.0)
 end
  begin
     id 21 
     name lhand
     direction 1 -4.48971e-011 -1.46301e-026   
     length 0.450922   
     axis 9.33524e-015 90 90   XYZ
    dof rx rz
    limits (-90.0 90.0)
           (-45.0 45.0)
  end
  begin
     id 22 
     name lfingers
     direction 1 -4.49039e-011 -2.92602e-026   
     length 0.363545   
     axis 1.86705e-014 90 90   XYZ
    dof rx
    limits (0.0 90.0)
  end
  begin
     id 23
     name lthumb
     direction 0.707107 -6.34941e-011 0.707107   
     length 0.52198   
     axis -90 45 2.85299e-015   XYZ
    dof rx rz
    limits (-45.0 45.0)
           (-45.0 45.0)
  end
  begin
     id 24 
     name rclavicle
     direction -0.825079 0.56158 -0.0622297   
     length 3.39909  
     axis 0 0 0   XYZ 
    dof ry rz
    limits (-10.0 20.0)
           (-20.0 0.0)
  end
  begin
     id 25 
     name rhumerus
     direction -1 -4.48965e-011 1.61691e-027  
     length 4.86725   
     axis -180 30 90   XYZ
    dof rx ry rz
    limits (-90.0 60.0)
           (-90.0 90.0)
           (-90.0 90.0)
  end
  begin
     id 26 
     name rradius
     direction -1 -4.48964e-011 -2.25776e-027   
     length 3.17144   
     axis -180 30 90   XYZ
    dof rx
    limits (-10.0 170.0)
  end
  begin
     id 27 
     name rwrist
     direction -1 -4.48961e-011 -7.31504e-027   
     length 1.58572   
     axis 5.74121e-015 -90 -90   XYZ
    dof ry
    limits (-180.0 0.0)
  end
  begin
     id 28
     name rhand
     direction -1 -4.49013e-011 -1.46301e-026   
     length 0.419368   
     axis 9.33524e-015 -90 -90   XYZ
    dof rx rz
    limits (-90.0 90.0)
           (-45.0 45.0)
  end
  begin
     id 29
     name rfingers
     direction -1 -4.489e-011 -2.92602e-026   
     length 0.338105   
     axis 1.86705e-014 -90 -90   XYZ
    dof rx
    limits (0.0 90.0)
  end
  begin
     id 30
     name rthumb
     direction -0.707107 -6.35022e-011 0.707107   
     length 0.485453   
     axis -90 -45 -2.85299e-015   XYZ
    dof rx rz
    limits (-45.0 45.0)
           (-45.0 45.0)
  end
:hierarchy
  begin
    root lhipjoint rhipjoint lowerback
    lhipjoint lfemur
    lfemur ltibia
    ltibia lfoot
    lfoot ltoes
    rhipjoint rfemur
    rfemur rtibia
    rtibia rfoot
    rfoot rtoes
    lowerback upperback
    upperback thorax
    thorax lowerneck lclavicle rclavicle
    lowerneck upperneck
    upperneck head
    lclavicle lhumerus
    lhumerus lradius
    lradius lwrist
    lwrist lhand lthumb
    lhand lfingers
    rclavicle rhumerus
    rhumerus rradius
    rradius rwrist
    rwrist rhand rthumb
    rhand rfingers
  end

#!OML:ASF H:\Swim 2\Project 1\Capture day 1\Session 1\male.ASF
:FULLY-SPECIFIED
:DEGREES
97
root 7.69885 9.88936 13.5355 107.273 -2.22497 3.32425
lowerback -10.5252 -1.28428 -0.846212
upperback -3.65164 -1.72182 2.34479
thorax 2.19356 -0.864843 2.69689
lowerneck -12.2667 -1.27921 -8.47718
upperneck 47.3169 0.104304 1.9956
head 21.17 -1.15212 2.6711
rclavicle 5.46658e-015 -3.50731e-014
rhumerus 108.629 -25.552 -26.2163
rradius 34.2402
rwrist 11.3157
rhand -24.9817 -23.3823
rfingers 7.12502
rthumb 1.52928 -53.3566
lclavicle 5.46658e-015 -3.50731e-014
lhumerus 104.439 23.9633 46.2116
lradius 19.8884
lwrist -11.7862
lhand -40.2299 -50.3845
lfingers 7.12502
lthumb -13.1894 -20.8217
rfemur -33.4159 6.06835 18.0189
rtibia 32.1098
rfoot 25.193 -12.3321
rtoes 22.6783
lfemur -36.3468 -11.8547 -21.6225
ltibia 32.9473
lfoot 20.8598 2.69451
ltoes 17.3294
98
root 7.69685 9.87728 13.5529 107.338 -2.21309 3.32271
lowerback -10.6187 -1.34056 -0.850341
upperback -3.62917 -1.79973 2.38731
thorax 2.27379 -0.905153 2.73167
lowerneck -12.5085 -1.22594 -8.56945
upperneck 47.3713 0.271498 1.93022
head 21.2766 -1.11945 2.69055
rclavicle -8.94531e-016 -2.00648e-014
rhumerus 108.597 -25.7246 -26.347
rradius 34.6377
rwrist 10.5873
rhand -24.7455 -22.5192
rfingers 7.12502
rthumb 1.75733 -52.4917
lclavicle -8.94531e-016 -2.00648e-014
lhumerus 103.048 24.9914 44.0087
lradius 20.9582
lwrist -9.58991
lhand -40.1899 -50.0263
lfingers 7.12502
lthumb -13.1508 -20.4611
rfemur -33.5888 6.42849 17.7746
rtibia 30.809
rfoot 24.8653 -12.5138
rtoes 22.5931
lfemur -36.7002 -12.013 -21.4286
ltibia 32.2522
lfoot 20.6537 2.89683
ltoes 16.8775
99
root 7.69502 9.86542 13.5679 107.385 -2.19866 3.31956
lowerback -10.7065 -1.37856 -0.880041
upperback -3.59544 -1.85018 2.43101
thorax 2.36194 -0.93155 2.78544
lowerneck -12.7146 -1.20425 -8.62569
upperneck 47.3371 0.395731 1.81866
head 21.3078 -1.09628 2.66773
rclavicle 1.41137e-014 -8.05078e-015
rhumerus 108.58 -25.9248 -26.5356
rradius 35.0359
rwrist 9.44564
rhand -24.2103 -21.453
rfingers 7.12502
rthumb 2.27422 -51.4206
lclavicle 1.41137e-014 -8.05078e-015
lhumerus 101.707 25.9096 41.9759
lradius 22.0686
lwrist -7.63
lhand -40.2408 -49.6255
lfingers 7.12502
lthumb -13.1999 -20.0634
rfemur -33.7825 6.72319 17.5577
rtibia 29.573
rfoot 24.4217 -12.7122
rtoes 22.3587
lfemur -37.0555 -12.1407 -21.2492
ltibia 31.6042
lfoot 20.3941 3.1346
ltoes 16.387
100
root 7.69334 9.8538 13.5803 107.412 -2.18282 3.3158
lowerback -10.7879 -1.394 -0.940521
upperback -3.55313 -1.86669 2.47447
thorax 2.45467 -0.940735 2.86072
lowerneck -12.8741 -1.22016 -8.64578
upperneck 47.2181 0.463467 1.66712
head 21.2644 -1.08658 2.60339
rclavicle 2.32578e-014 -3.12962e-014
rhumerus 108.521 -26.1767 -26.7093
rradius 35.4676
rwrist 7.88626
rhand -23.3553 -20.3994
rfingers 7.12502
rthumb 3.09993 -50.3566
lclavicle 2.32578e-014 -3.12962e-014
lhumerus 100.481 26.6963 40.2087
lradius 23.1746
lwrist -5.94865
lhand -40.3658 -49.2345
lfingers 7.12502
lthumb -13.3204 -19.6802
rfemur -33.9961 6.95086 17.3709
rtibia 28.409
rfoot 23.8782 -12.9257
rtoes 22.0558
lfemur -37.4105 -12.2395 -21.0863
ltibia 31.0029
lfoot 20.0881 3.41256
ltoes 15.9306
101
root 7.69181 9.84252 13.5898 107.42 -2.16565 3.3126
lowerback -10.8541 -1.39547 -1.01826
upperback -3.50972 -1.86214 2.51616
thorax 2.5395 -0.939222 2.94701
lowerneck -12.991 -1.2511 -8.65017
upperneck 47.0287 0.501813 1.50454
head 21.1564 -1.08221 2.52251
rclavicle -1.15295e-014 1.22998e-015
rhumerus 108.338 -26.5032 -26.7612
rradius 35.9451
rwrist 6.13829
rhand -22.3692 -19.5968
rfingers 7.12502
rthumb 4.05226 -49.538
lclavicle -1.15295e-014 1.22998e-015
lhumerus 99.4706 27.3271 38.8842
lradius 24.1935
lwrist -4.57252
lhand -40.4706 -49.0202
lfingers 7.12502
lthumb -13.4214 -19.4726
rfemur -34.2256 7.10899 17.2183
rtibia 27.3215
rfoot 23.2571 -13.1552
rtoes 21.7963
lfemur -37.764 -12.3058 -20.9434
ltibia 30.4476
lfoot 19.7474 3.71871
ltoes 15.573
102
root 7.69042 9.83164 13.5964 107.409 -2.15081 3.31023
lowerback -10.9014 -1.38661 -1.10995
upperback -3.46891 -1.8417 2.55295
thorax 2.61057 -0.929594 3.03868
lowerneck -13.0973 -1.28607 -8.65454
upperneck 46.8152 0.518881 1.37128
head 21.0291 -1.08137 2.45262
rclavicle 1.46107e-014 1.34677e-014
rhumerus 107.972 -26.9221 -26.6256
rradius 36.4845
rwrist 4.33203
rhand -21.4142 -19.1443
rfingers 7.12502
rthumb 4.97444 -49.0659
lclavicle 1.46107e-014 1.34677e-014
lhumerus 98.7147 27.8115 38.0624
lradius 25.0132
lwrist -3.55063
lhand -40.5949 -49.1155
lfingers 7.12502
lthumb -13.5412 -19.5758
rfemur -34.4692 7.19924 17.098
rtibia 26.3134
rfoot 22.6041 -13.4144
rtoes 21.6702
lfemur -38.1132 -12.349 -20.8224
ltibia 29.9338
lfoot 19.375 4.06642
ltoes 15.3223
103
root 7.68913 9.82114 13.6003 107.377 -2.13358 3.30858
lowerback -10.9193 -1.38381 -1.19528
upperback -3.43863 -1.83003 2.59129
thorax 2.65484 -0.924204 3.12795
lowerneck -13.2091 -1.29858 -8.69278
upperneck 46.6081 0.557695 1.28958
head 20.9071 -1.07382 2.42047
rclavicle -1.3418e-014 2.04997e-014
rhumerus 107.468 -27.3854 -26.3641
rradius 37.065
rwrist 2.5408
rhand -20.6054 -18.8486
rfingers 7.12502
rthumb 5.75534 -48.7505
lclavicle -1.3418e-014 2.04997e-014
lhumerus 98.224 28.1764 37.7829
lradius 25.5255
lwrist -2.98571
lhand -40.7885 -49.5594
lfingers 7.12502
lthumb -13.7278 -20.0322
rfemur -34.7228 7.23601 17.0123
rtibia 25.3869
rfoot 21.9385 -13.7234
rtoes 21.7059
lfemur -38.4511 -12.3647 -20.7209
ltibia 29.4554
lfoot 18.9609 4.45214
ltoes 15.1243
104
root 7.68799 9.81111 13.6016 107.33 -2.11704 3.30858
lowerback -10.9163 -1.38354 -1.27922
upperback -3.42016 -1.82178 2.62896
thorax 2.67552 -0.920301 3.21585
lowerneck -13.3325 -1.29797 -8.75166
upperneck 46.4232 0.606219 1.24899
head 20.8051 -1.06312 2.41608
rclavicle 9.14409e-015 -9.23106e-015
rhumerus 106.785 -27.9039 -25.9433
rradius 37.6558
rwrist 0.874459
rhand -20.1298 -18.461
rfingers 7.12502
rthumb 6.21447 -48.3499
lclavicle 9.14409e-015 -9.23106e-015
lhumerus 98.0772 28.4093 38.1433
lradius 25.6293
lwrist -3.02352
lhand -41.1203 -50.3681
lfingers 7.12502
lthumb -14.0475 -20.8628
rfemur -34.9905 7.23669 16.9495
rtibia 24.5419
rfoot 21.2735 -14.1126
rtoes 21.9037
lfemur -38.7801 -12.3624 -20.6385
ltibia 29.0058
lfoot 18.4987 4.88644
ltoes 14.9478
105
root 7.68699 9.80148 13.6001 107.269 -2.10188 3.3079
lowerback -10.8947 -1.38736 -1.36077
upperback -3.40962 -1.8193 2.66647
thorax 2.67805 -0.919104 3.30191
lowerneck -13.4657 -1.29053 -8.81325
upperneck 46.246 0.661531 1.21983
head 20.712 -1.04986 2.41966
rclavicle 1.59028e-015 -2.08103e-014
rhumerus 106.006 -28.4548 -25.4623
rradius 38.3121
rwrist -1.01823
rhand -19.6132 -17.9862
rfingers 7.12502
rthumb 6.7132 -47.8598
lclavicle 1.59028e-015 -2.08103e-014
lhumerus 98.3027 28.5102 39.1681
lradius 25.317
lwrist -3.73764
lhand -41.5753 -49.9623
lfingers 7.12502
lthumb -14.486 -20.4879
rfemur -35.2703 7.22779 16.8963
rtibia 23.7767
rfoot 20.5938 -14.6032
rtoes 22.1425
lfemur -39.0949 -12.3513 -20.5705
ltibia 28.5798
lfoot 17.985 5.38569
ltoes 14.8625
106
root 7.68609 9.79219 13.5956 107.196 -2.08546 3.30465
lowerback -10.8545 -1.40283 -1.4265
upperback -3.40152 -1.83447 2.70511
thorax 2.66858 -0.926747 3.37819
lowerneck -13.6068 -1.27128 -8.88227
upperneck 46.0411 0.735695 1.19091
head 20.6002 -1.0304 2.42749
rclavicle 3.67752e-015 -4.08751e-015
rhumerus 105.156 -29.0265 -24.9418
rradius 39.0364
rwrist -3.0763
rhand -19.0666 -17.4376
rfingers 7.12502
rthumb 7.24082 -47.2937
lclavicle 3.67752e-015 -4.08751e-015
lhumerus 98.8439 28.5125 40.7457
lradius 24.6936
lwrist -4.97141
lhand -42.0638 -48.2472
lfingers 7.12502
lthumb -14.9566 -18.8072
rfemur -35.5578 7.2395 16.8406
rtibia 23.0862
rfoot 19.9289 -15.1959
rtoes 22.5712
lfemur -39.3933 -12.3392 -20.5097
ltibia 28.1745
lfoot 17.4175 5.94835
ltoes 14.8291
107
root 7.68537 9.78322 13.5884 107.111 -2.06956 3.30078
lowerback -10.7972 -1.4327 -1.47016
upperback -3.39397 -1.87167 2.74265
thorax 2.65015 -0.945493 3.4382
lowerneck -13.7567 -1.23846 -8.96713
upperneck 45.796 0.829635 1.17161
head 20.4612 -1.00423 2.44571
rclavicle 8.15017e-015 1.36789e-014
rhumerus 104.281 -29.5781 -24.4382
rradius 39.8068
rwrist -5.1999
rhand -18.4939 -16.8505
rfingers 7.12502
rthumb 7.79368 -46.6869
lclavicle 8.15017e-015 1.36789e-014
lhumerus 99.6035 28.4422 42.6987
lradius 23.9163
lwrist -6.39029
lhand -42.3653 -44.1017
lfingers 7.12502
lthumb -15.247 -14.6836
rfemur -35.8487 7.28013 16.7725
rtibia 22.4632
rfoot 19.2318 -15.8741
rtoes 23.0082
lfemur -39.6748 -12.3195 -20.4613
ltibia 27.7899
lfoot 16.8101 6.53602
ltoes 14.8843
